<svg id="container" width="100%" xmlns="http://www.w3.org/2000/svg" viewBox="0 0 580 450" style="max-width: 580px;" role="graphics-document document" aria-roledescription="pie"><style>#container{font-family:"trebuchet ms",verdana,arial,sans-serif;font-size:16px;fill:#333;}@keyframes edge-animation-frame{from{stroke-dashoffset:0;}}@keyframes dash{to{stroke-dashoffset:0;}}#container .edge-animation-slow{stroke-dasharray:9,5!important;stroke-dashoffset:900;animation:dash 50s linear infinite;stroke-linecap:round;}#container .edge-animation-fast{stroke-dasharray:9,5!important;stroke-dashoffset:900;animation:dash 20s linear infinite;stroke-linecap:round;}#container .error-icon{fill:#552222;}#container .error-text{fill:#552222;stroke:#552222;}#container .edge-thickness-normal{stroke-width:1px;}#container .edge-thickness-thick{stroke-width:3.5px;}#container .edge-pattern-solid{stroke-dasharray:0;}#container .edge-thickness-invisible{stroke-width:0;fill:none;}#container .edge-pattern-dashed{stroke-dasharray:3;}#container .edge-pattern-dotted{stroke-dasharray:2;}#container .marker{fill:#333333;stroke:#333333;}#container .marker.cross{stroke:#333333;}#container svg{font-family:"trebuchet ms",verdana,arial,sans-serif;font-size:16px;}#container p{margin:0;}#container .pieCircle{stroke:black;stroke-width:2px;opacity:0.7;}#container .pieOuterCircle{stroke:black;stroke-width:2px;fill:none;}#container .pieTitleText{text-anchor:middle;font-size:25px;fill:black;font-family:"trebuchet ms",verdana,arial,sans-serif;}#container .slice{font-family:"trebuchet ms",verdana,arial,sans-serif;fill:#333;font-size:17px;}#container .legend text{fill:black;font-family:"trebuchet ms",verdana,arial,sans-serif;font-size:17px;}#container :root{--mermaid-font-family:"trebuchet ms",verdana,arial,sans-serif;}</style><g></g><g transform="translate(225,225)"><circle cx="0" cy="0" r="186" class="pieOuterCircle"></circle><path d="M0,-185A185,185,0,0,1,149.668,108.74L0,0Z" fill="#ECECFF" class="pieCircle"></path><path d="M149.668,108.74A185,185,0,0,1,-57.168,175.945L0,0Z" fill="#ffffde" class="pieCircle"></path><path d="M-57.168,175.945A185,185,0,0,1,-175.945,57.168L0,0Z" fill="hsl(80, 100%, 56.2745098039%)" class="pieCircle"></path><path d="M-175.945,57.168A185,185,0,0,1,-167.393,-78.769L0,0Z" fill="hsl(240, 100%, 86.2745098039%)" class="pieCircle"></path><path d="M-167.393,-78.769A185,185,0,0,1,-89.124,-162.117L0,0Z" fill="hsl(60, 100%, 63.5294117647%)" class="pieCircle"></path><path d="M-89.124,-162.117A185,185,0,0,1,-34.666,-181.723L0,0Z" fill="hsl(80, 100%, 76.2745098039%)" class="pieCircle"></path><path d="M-34.666,-181.723A185,185,0,0,1,0,-185L0,0Z" fill="hsl(300, 100%, 76.2745098039%)" class="pieCircle"></path><text transform="translate(123.62715523113604,-62.99118183886211)" class="slice" style="text-anchor: middle;">35%</text><text transform="translate(42.87610796952396,131.95909163595255)" class="slice" style="text-anchor: middle;">20%</text><text transform="translate(-98.11106588963347,98.11106588963348)" class="slice" style="text-anchor: middle;">15%</text><text transform="translate(-138.47620856942268,-8.712184584692166)" class="slice" style="text-anchor: middle;">12%</text><text transform="translate(-101.14439705472086,-94.98091094760557)" class="slice" style="text-anchor: middle;">10%</text><text transform="translate(-46.999886434034174,-130.5472066923988)" class="slice" style="text-anchor: middle;">5%</text><text transform="translate(-13.057528472943812,-138.13422258867735)" class="slice" style="text-anchor: middle;">3%</text><text x="0" y="-200" class="pieTitleText">算法题目分布</text><g class="legend" transform="translate(216,-77)"><rect width="18" height="18" style="fill: rgb(236, 236, 255); stroke: rgb(236, 236, 255);"></rect><text x="22" y="14">数组</text></g><g class="legend" transform="translate(216,-55)"><rect width="18" height="18" style="fill: rgb(255, 255, 222); stroke: rgb(255, 255, 222);"></rect><text x="22" y="14">字符串</text></g><g class="legend" transform="translate(216,-33)"><rect width="18" height="18" style="fill: rgb(181, 255, 32); stroke: rgb(181, 255, 32);"></rect><text x="22" y="14">链表</text></g><g class="legend" transform="translate(216,-11)"><rect width="18" height="18" style="fill: rgb(185, 185, 255); stroke: rgb(185, 185, 255);"></rect><text x="22" y="14">数学</text></g><g class="legend" transform="translate(216,11)"><rect width="18" height="18" style="fill: rgb(255, 255, 69); stroke: rgb(255, 255, 69);"></rect><text x="22" y="14">栈与队列</text></g><g class="legend" transform="translate(216,33)"><rect width="18" height="18" style="fill: rgb(215, 255, 134); stroke: rgb(215, 255, 134);"></rect><text x="22" y="14">树与图</text></g><g class="legend" transform="translate(216,55)"><rect width="18" height="18" style="fill: rgb(255, 134, 255); stroke: rgb(255, 134, 255);"></rect><text x="22" y="14">其他</text></g></g></svg>