<svg id="container" width="2300" xmlns="http://www.w3.org/2000/svg" height="565" viewBox="0 -25 2300 540" preserveAspectRatio="xMinYMin meet" role="graphics-document document" aria-roledescription="journey"><style>#container{font-family:"trebuchet ms",verdana,arial,sans-serif;font-size:16px;fill:#333;}@keyframes edge-animation-frame{from{stroke-dashoffset:0;}}@keyframes dash{to{stroke-dashoffset:0;}}#container .edge-animation-slow{stroke-dasharray:9,5!important;stroke-dashoffset:900;animation:dash 50s linear infinite;stroke-linecap:round;}#container .edge-animation-fast{stroke-dasharray:9,5!important;stroke-dashoffset:900;animation:dash 20s linear infinite;stroke-linecap:round;}#container .error-icon{fill:#552222;}#container .error-text{fill:#552222;stroke:#552222;}#container .edge-thickness-normal{stroke-width:1px;}#container .edge-thickness-thick{stroke-width:3.5px;}#container .edge-pattern-solid{stroke-dasharray:0;}#container .edge-thickness-invisible{stroke-width:0;fill:none;}#container .edge-pattern-dashed{stroke-dasharray:3;}#container .edge-pattern-dotted{stroke-dasharray:2;}#container .marker{fill:#333333;stroke:#333333;}#container .marker.cross{stroke:#333333;}#container svg{font-family:"trebuchet ms",verdana,arial,sans-serif;font-size:16px;}#container p{margin:0;}#container .label{font-family:"trebuchet ms",verdana,arial,sans-serif;color:#333;}#container .mouth{stroke:#666;}#container line{stroke:#333;}#container .legend{fill:#333;font-family:"trebuchet ms",verdana,arial,sans-serif;}#container .label text{fill:#333;}#container .label{color:#333;}#container .face{fill:#FFF8DC;stroke:#999;}#container .node rect,#container .node circle,#container .node ellipse,#container .node polygon,#container .node path{fill:#ECECFF;stroke:#9370DB;stroke-width:1px;}#container .node .label{text-align:center;}#container .node.clickable{cursor:pointer;}#container .arrowheadPath{fill:#333333;}#container .edgePath .path{stroke:#333333;stroke-width:1.5px;}#container .flowchart-link{stroke:#333333;fill:none;}#container .edgeLabel{background-color:rgba(232,232,232, 0.8);text-align:center;}#container .edgeLabel rect{opacity:0.5;}#container .cluster text{fill:#333;}#container div.mermaidTooltip{position:absolute;text-align:center;max-width:200px;padding:2px;font-family:"trebuchet ms",verdana,arial,sans-serif;font-size:12px;background:hsl(80, 100%, 96.2745098039%);border:1px solid #aaaa33;border-radius:2px;pointer-events:none;z-index:100;}#container .task-type-0,#container .section-type-0{fill:#ECECFF;}#container .task-type-1,#container .section-type-1{fill:#ffffde;}#container .task-type-2,#container .section-type-2{fill:hsl(304, 100%, 96.2745098039%);}#container .task-type-3,#container .section-type-3{fill:hsl(124, 100%, 93.5294117647%);}#container .task-type-4,#container .section-type-4{fill:hsl(176, 100%, 96.2745098039%);}#container .task-type-5,#container .section-type-5{fill:hsl(-4, 100%, 93.5294117647%);}#container .task-type-6,#container .section-type-6{fill:hsl(8, 100%, 96.2745098039%);}#container .task-type-7,#container .section-type-7{fill:hsl(188, 100%, 93.5294117647%);}#container .label-icon{display:inline-block;height:1em;overflow:visible;vertical-align:-0.125em;}#container .node .label-icon path{fill:currentColor;stroke:revert;stroke-width:revert;}#container :root{--mermaid-font-family:"trebuchet ms",verdana,arial,sans-serif;}</style><g></g><defs><marker id="arrowhead" refX="5" refY="2" markerWidth="6" markerHeight="4" orient="auto"><path d="M 0,0 V 4 L6,2 Z"></path></marker></defs><circle cx="20" cy="60" class="actor-0" fill="#8FBC8F" stroke="#000" r="7"></circle><text x="40" y="67" class="legend"><tspan x="50">用户</tspan></text><g><rect x="150" y="50" fill="#191970" stroke="#666" width="550" height="50" rx="3" ry="3" class="journey-section section-type-0"></rect><switch><foreignObject x="150" y="50" width="550" height="50"><div class="journey-section section-type-0" xmlns="http://www.w3.org/1999/xhtml" style="display: table; height: 100%; width: 100%;"><div class="label" style="display: table-cell; text-align: center; vertical-align: middle;">🔍 发现阶段</div></div></foreignObject><text x="425" y="75" dominant-baseline="central" alignment-baseline="central" class="journey-section section-type-0" style="text-anchor: middle; font-size: 14px; font-family: &quot;Open Sans&quot;, sans-serif;"><tspan x="425" dy="0">🔍 发现阶段</tspan></text></switch></g><g><line id="task0" x1="225" y1="110" x2="225" y2="450" class="task-line" stroke-width="1px" stroke-dasharray="4 2" stroke="#666"></line><circle cx="225" cy="300" class="face" r="15" stroke-width="2" overflow="visible"></circle><g><circle cx="220" cy="295" r="1.5" stroke-width="2" fill="#666" stroke="#666"></circle><circle cx="230" cy="295" r="1.5" stroke-width="2" fill="#666" stroke="#666"></circle><path class="mouth" d="M7.5,0A7.5,7.5,0,1,1,-7.5,0L-6.818,0A6.818,6.818,0,1,0,6.818,0Z" transform="translate(225,302)"></path></g><rect x="150" y="110" fill="#191970" stroke="#666" width="150" height="50" rx="3" ry="3" class="task task-type-0"></rect><circle cx="164" cy="110" class="actor-0" fill="#8FBC8F" stroke="#000" r="7"><title>用户</title></circle><switch><foreignObject x="150" y="110" width="150" height="50"><div class="task" xmlns="http://www.w3.org/1999/xhtml" style="display: table; height: 100%; width: 100%;"><div class="label" style="display: table-cell; text-align: center; vertical-align: middle;">浏览商品页面</div></div></foreignObject><text x="225" y="135" dominant-baseline="central" alignment-baseline="central" class="task" style="text-anchor: middle; font-size: 14px; font-family: &quot;Open Sans&quot;, sans-serif;"><tspan x="225" dy="0">浏览商品页面</tspan></text></switch></g><g><line id="task1" x1="425" y1="110" x2="425" y2="450" class="task-line" stroke-width="1px" stroke-dasharray="4 2" stroke="#666"></line><circle cx="425" cy="330" class="face" r="15" stroke-width="2" overflow="visible"></circle><g><circle cx="420" cy="325" r="1.5" stroke-width="2" fill="#666" stroke="#666"></circle><circle cx="430" cy="325" r="1.5" stroke-width="2" fill="#666" stroke="#666"></circle><path class="mouth" d="M7.5,0A7.5,7.5,0,1,1,-7.5,0L-6.818,0A6.818,6.818,0,1,0,6.818,0Z" transform="translate(425,332)"></path></g><rect x="350" y="110" fill="#191970" stroke="#666" width="150" height="50" rx="3" ry="3" class="task task-type-0"></rect><circle cx="364" cy="110" class="actor-0" fill="#8FBC8F" stroke="#000" r="7"><title>用户</title></circle><switch><foreignObject x="350" y="110" width="150" height="50"><div class="task" xmlns="http://www.w3.org/1999/xhtml" style="display: table; height: 100%; width: 100%;"><div class="label" style="display: table-cell; text-align: center; vertical-align: middle;">查看商品详情</div></div></foreignObject><text x="425" y="135" dominant-baseline="central" alignment-baseline="central" class="task" style="text-anchor: middle; font-size: 14px; font-family: &quot;Open Sans&quot;, sans-serif;"><tspan x="425" dy="0">查看商品详情</tspan></text></switch></g><g><line id="task2" x1="625" y1="110" x2="625" y2="450" class="task-line" stroke-width="1px" stroke-dasharray="4 2" stroke="#666"></line><circle cx="625" cy="360" class="face" r="15" stroke-width="2" overflow="visible"></circle><g><circle cx="620" cy="355" r="1.5" stroke-width="2" fill="#666" stroke="#666"></circle><circle cx="630" cy="355" r="1.5" stroke-width="2" fill="#666" stroke="#666"></circle><line class="mouth" stroke="#666" x1="620" y1="367" x2="630" y2="367" stroke-width="1px"></line></g><rect x="550" y="110" fill="#191970" stroke="#666" width="150" height="50" rx="3" ry="3" class="task task-type-0"></rect><circle cx="564" cy="110" class="actor-0" fill="#8FBC8F" stroke="#000" r="7"><title>用户</title></circle><switch><foreignObject x="550" y="110" width="150" height="50"><div class="task" xmlns="http://www.w3.org/1999/xhtml" style="display: table; height: 100%; width: 100%;"><div class="label" style="display: table-cell; text-align: center; vertical-align: middle;">对比商品信息</div></div></foreignObject><text x="625" y="135" dominant-baseline="central" alignment-baseline="central" class="task" style="text-anchor: middle; font-size: 14px; font-family: &quot;Open Sans&quot;, sans-serif;"><tspan x="625" dy="0">对比商品信息</tspan></text></switch></g><g><rect x="750" y="50" fill="#8B008B" stroke="#666" width="750" height="50" rx="3" ry="3" class="journey-section section-type-1"></rect><switch><foreignObject x="750" y="50" width="750" height="50"><div class="journey-section section-type-1" xmlns="http://www.w3.org/1999/xhtml" style="display: table; height: 100%; width: 100%;"><div class="label" style="display: table-cell; text-align: center; vertical-align: middle;">🛒 购买阶段</div></div></foreignObject><text x="1125" y="75" dominant-baseline="central" alignment-baseline="central" class="journey-section section-type-1" style="text-anchor: middle; font-size: 14px; font-family: &quot;Open Sans&quot;, sans-serif;"><tspan x="1125" dy="0">🛒 购买阶段</tspan></text></switch></g><g><line id="task3" x1="825" y1="110" x2="825" y2="450" class="task-line" stroke-width="1px" stroke-dasharray="4 2" stroke="#666"></line><circle cx="825" cy="330" class="face" r="15" stroke-width="2" overflow="visible"></circle><g><circle cx="820" cy="325" r="1.5" stroke-width="2" fill="#666" stroke="#666"></circle><circle cx="830" cy="325" r="1.5" stroke-width="2" fill="#666" stroke="#666"></circle><path class="mouth" d="M7.5,0A7.5,7.5,0,1,1,-7.5,0L-6.818,0A6.818,6.818,0,1,0,6.818,0Z" transform="translate(825,332)"></path></g><rect x="750" y="110" fill="#8B008B" stroke="#666" width="150" height="50" rx="3" ry="3" class="task task-type-1"></rect><circle cx="764" cy="110" class="actor-0" fill="#8FBC8F" stroke="#000" r="7"><title>用户</title></circle><switch><foreignObject x="750" y="110" width="150" height="50"><div class="task" xmlns="http://www.w3.org/1999/xhtml" style="display: table; height: 100%; width: 100%;"><div class="label" style="display: table-cell; text-align: center; vertical-align: middle;">添加到购物车</div></div></foreignObject><text x="825" y="135" dominant-baseline="central" alignment-baseline="central" class="task" style="text-anchor: middle; font-size: 14px; font-family: &quot;Open Sans&quot;, sans-serif;"><tspan x="825" dy="0">添加到购物车</tspan></text></switch></g><g><line id="task4" x1="1025" y1="110" x2="1025" y2="450" class="task-line" stroke-width="1px" stroke-dasharray="4 2" stroke="#666"></line><circle cx="1025" cy="360" class="face" r="15" stroke-width="2" overflow="visible"></circle><g><circle cx="1020" cy="355" r="1.5" stroke-width="2" fill="#666" stroke="#666"></circle><circle cx="1030" cy="355" r="1.5" stroke-width="2" fill="#666" stroke="#666"></circle><line class="mouth" stroke="#666" x1="1020" y1="367" x2="1030" y2="367" stroke-width="1px"></line></g><rect x="950" y="110" fill="#8B008B" stroke="#666" width="150" height="50" rx="3" ry="3" class="task task-type-1"></rect><circle cx="964" cy="110" class="actor-0" fill="#8FBC8F" stroke="#000" r="7"><title>用户</title></circle><switch><foreignObject x="950" y="110" width="150" height="50"><div class="task" xmlns="http://www.w3.org/1999/xhtml" style="display: table; height: 100%; width: 100%;"><div class="label" style="display: table-cell; text-align: center; vertical-align: middle;">填写收货信息</div></div></foreignObject><text x="1025" y="135" dominant-baseline="central" alignment-baseline="central" class="task" style="text-anchor: middle; font-size: 14px; font-family: &quot;Open Sans&quot;, sans-serif;"><tspan x="1025" dy="0">填写收货信息</tspan></text></switch></g><g><line id="task5" x1="1225" y1="110" x2="1225" y2="450" class="task-line" stroke-width="1px" stroke-dasharray="4 2" stroke="#666"></line><circle cx="1225" cy="330" class="face" r="15" stroke-width="2" overflow="visible"></circle><g><circle cx="1220" cy="325" r="1.5" stroke-width="2" fill="#666" stroke="#666"></circle><circle cx="1230" cy="325" r="1.5" stroke-width="2" fill="#666" stroke="#666"></circle><path class="mouth" d="M7.5,0A7.5,7.5,0,1,1,-7.5,0L-6.818,0A6.818,6.818,0,1,0,6.818,0Z" transform="translate(1225,332)"></path></g><rect x="1150" y="110" fill="#8B008B" stroke="#666" width="150" height="50" rx="3" ry="3" class="task task-type-1"></rect><circle cx="1164" cy="110" class="actor-0" fill="#8FBC8F" stroke="#000" r="7"><title>用户</title></circle><switch><foreignObject x="1150" y="110" width="150" height="50"><div class="task" xmlns="http://www.w3.org/1999/xhtml" style="display: table; height: 100%; width: 100%;"><div class="label" style="display: table-cell; text-align: center; vertical-align: middle;">选择支付方式</div></div></foreignObject><text x="1225" y="135" dominant-baseline="central" alignment-baseline="central" class="task" style="text-anchor: middle; font-size: 14px; font-family: &quot;Open Sans&quot;, sans-serif;"><tspan x="1225" dy="0">选择支付方式</tspan></text></switch></g><g><line id="task6" x1="1425" y1="110" x2="1425" y2="450" class="task-line" stroke-width="1px" stroke-dasharray="4 2" stroke="#666"></line><circle cx="1425" cy="300" class="face" r="15" stroke-width="2" overflow="visible"></circle><g><circle cx="1420" cy="295" r="1.5" stroke-width="2" fill="#666" stroke="#666"></circle><circle cx="1430" cy="295" r="1.5" stroke-width="2" fill="#666" stroke="#666"></circle><path class="mouth" d="M7.5,0A7.5,7.5,0,1,1,-7.5,0L-6.818,0A6.818,6.818,0,1,0,6.818,0Z" transform="translate(1425,302)"></path></g><rect x="1350" y="110" fill="#8B008B" stroke="#666" width="150" height="50" rx="3" ry="3" class="task task-type-1"></rect><circle cx="1364" cy="110" class="actor-0" fill="#8FBC8F" stroke="#000" r="7"><title>用户</title></circle><switch><foreignObject x="1350" y="110" width="150" height="50"><div class="task" xmlns="http://www.w3.org/1999/xhtml" style="display: table; height: 100%; width: 100%;"><div class="label" style="display: table-cell; text-align: center; vertical-align: middle;">完成支付</div></div></foreignObject><text x="1425" y="135" dominant-baseline="central" alignment-baseline="central" class="task" style="text-anchor: middle; font-size: 14px; font-family: &quot;Open Sans&quot;, sans-serif;"><tspan x="1425" dy="0">完成支付</tspan></text></switch></g><g><rect x="1550" y="50" fill="#4B0082" stroke="#666" width="550" height="50" rx="3" ry="3" class="journey-section section-type-2"></rect><switch><foreignObject x="1550" y="50" width="550" height="50"><div class="journey-section section-type-2" xmlns="http://www.w3.org/1999/xhtml" style="display: table; height: 100%; width: 100%;"><div class="label" style="display: table-cell; text-align: center; vertical-align: middle;">📦 售后阶段</div></div></foreignObject><text x="1825" y="75" dominant-baseline="central" alignment-baseline="central" class="journey-section section-type-2" style="text-anchor: middle; font-size: 14px; font-family: &quot;Open Sans&quot;, sans-serif;"><tspan x="1825" dy="0">📦 售后阶段</tspan></text></switch></g><g><line id="task7" x1="1625" y1="110" x2="1625" y2="450" class="task-line" stroke-width="1px" stroke-dasharray="4 2" stroke="#666"></line><circle cx="1625" cy="360" class="face" r="15" stroke-width="2" overflow="visible"></circle><g><circle cx="1620" cy="355" r="1.5" stroke-width="2" fill="#666" stroke="#666"></circle><circle cx="1630" cy="355" r="1.5" stroke-width="2" fill="#666" stroke="#666"></circle><line class="mouth" stroke="#666" x1="1620" y1="367" x2="1630" y2="367" stroke-width="1px"></line></g><rect x="1550" y="110" fill="#4B0082" stroke="#666" width="150" height="50" rx="3" ry="3" class="task task-type-2"></rect><circle cx="1564" cy="110" class="actor-0" fill="#8FBC8F" stroke="#000" r="7"><title>用户</title></circle><switch><foreignObject x="1550" y="110" width="150" height="50"><div class="task" xmlns="http://www.w3.org/1999/xhtml" style="display: table; height: 100%; width: 100%;"><div class="label" style="display: table-cell; text-align: center; vertical-align: middle;">等待发货</div></div></foreignObject><text x="1625" y="135" dominant-baseline="central" alignment-baseline="central" class="task" style="text-anchor: middle; font-size: 14px; font-family: &quot;Open Sans&quot;, sans-serif;"><tspan x="1625" dy="0">等待发货</tspan></text></switch></g><g><line id="task8" x1="1825" y1="110" x2="1825" y2="450" class="task-line" stroke-width="1px" stroke-dasharray="4 2" stroke="#666"></line><circle cx="1825" cy="300" class="face" r="15" stroke-width="2" overflow="visible"></circle><g><circle cx="1820" cy="295" r="1.5" stroke-width="2" fill="#666" stroke="#666"></circle><circle cx="1830" cy="295" r="1.5" stroke-width="2" fill="#666" stroke="#666"></circle><path class="mouth" d="M7.5,0A7.5,7.5,0,1,1,-7.5,0L-6.818,0A6.818,6.818,0,1,0,6.818,0Z" transform="translate(1825,302)"></path></g><rect x="1750" y="110" fill="#4B0082" stroke="#666" width="150" height="50" rx="3" ry="3" class="task task-type-2"></rect><circle cx="1764" cy="110" class="actor-0" fill="#8FBC8F" stroke="#000" r="7"><title>用户</title></circle><switch><foreignObject x="1750" y="110" width="150" height="50"><div class="task" xmlns="http://www.w3.org/1999/xhtml" style="display: table; height: 100%; width: 100%;"><div class="label" style="display: table-cell; text-align: center; vertical-align: middle;">收到商品</div></div></foreignObject><text x="1825" y="135" dominant-baseline="central" alignment-baseline="central" class="task" style="text-anchor: middle; font-size: 14px; font-family: &quot;Open Sans&quot;, sans-serif;"><tspan x="1825" dy="0">收到商品</tspan></text></switch></g><g><line id="task9" x1="2025" y1="110" x2="2025" y2="450" class="task-line" stroke-width="1px" stroke-dasharray="4 2" stroke="#666"></line><circle cx="2025" cy="330" class="face" r="15" stroke-width="2" overflow="visible"></circle><g><circle cx="2020" cy="325" r="1.5" stroke-width="2" fill="#666" stroke="#666"></circle><circle cx="2030" cy="325" r="1.5" stroke-width="2" fill="#666" stroke="#666"></circle><path class="mouth" d="M7.5,0A7.5,7.5,0,1,1,-7.5,0L-6.818,0A6.818,6.818,0,1,0,6.818,0Z" transform="translate(2025,332)"></path></g><rect x="1950" y="110" fill="#4B0082" stroke="#666" width="150" height="50" rx="3" ry="3" class="task task-type-2"></rect><circle cx="1964" cy="110" class="actor-0" fill="#8FBC8F" stroke="#000" r="7"><title>用户</title></circle><switch><foreignObject x="1950" y="110" width="150" height="50"><div class="task" xmlns="http://www.w3.org/1999/xhtml" style="display: table; height: 100%; width: 100%;"><div class="label" style="display: table-cell; text-align: center; vertical-align: middle;">商品评价</div></div></foreignObject><text x="2025" y="135" dominant-baseline="central" alignment-baseline="central" class="task" style="text-anchor: middle; font-size: 14px; font-family: &quot;Open Sans&quot;, sans-serif;"><tspan x="2025" dy="0">商品评价</tspan></text></switch></g><text x="150" font-size="4ex" font-weight="bold" y="25" fill="" font-family="&quot;trebuchet ms&quot;, verdana, arial, sans-serif">👤 用户购物旅程</text><line x1="150" y1="200" x2="2146" y2="200" stroke-width="4" stroke="black" marker-end="url(#arrowhead)"></line></svg>