<svg aria-roledescription="pie" role="graphics-document document" style="max-width: 580px;" viewBox="0 0 580 450" xmlns="http://www.w3.org/2000/svg" width="100%" id="container"><style>#container{font-family:"trebuchet ms",verdana,arial,sans-serif;font-size:16px;fill:#333;}@keyframes edge-animation-frame{from{stroke-dashoffset:0;}}@keyframes dash{to{stroke-dashoffset:0;}}#container .edge-animation-slow{stroke-dasharray:9,5!important;stroke-dashoffset:900;animation:dash 50s linear infinite;stroke-linecap:round;}#container .edge-animation-fast{stroke-dasharray:9,5!important;stroke-dashoffset:900;animation:dash 20s linear infinite;stroke-linecap:round;}#container .error-icon{fill:#552222;}#container .error-text{fill:#552222;stroke:#552222;}#container .edge-thickness-normal{stroke-width:1px;}#container .edge-thickness-thick{stroke-width:3.5px;}#container .edge-pattern-solid{stroke-dasharray:0;}#container .edge-thickness-invisible{stroke-width:0;fill:none;}#container .edge-pattern-dashed{stroke-dasharray:3;}#container .edge-pattern-dotted{stroke-dasharray:2;}#container .marker{fill:#333333;stroke:#333333;}#container .marker.cross{stroke:#333333;}#container svg{font-family:"trebuchet ms",verdana,arial,sans-serif;font-size:16px;}#container p{margin:0;}#container .pieCircle{stroke:black;stroke-width:2px;opacity:0.7;}#container .pieOuterCircle{stroke:black;stroke-width:2px;fill:none;}#container .pieTitleText{text-anchor:middle;font-size:25px;fill:black;font-family:"trebuchet ms",verdana,arial,sans-serif;}#container .slice{font-family:"trebuchet ms",verdana,arial,sans-serif;fill:#333;font-size:17px;}#container .legend text{fill:black;font-family:"trebuchet ms",verdana,arial,sans-serif;font-size:17px;}#container :root{--mermaid-font-family:"trebuchet ms",verdana,arial,sans-serif;}</style><g></g><g transform="translate(225,225)"><circle class="pieOuterCircle" r="186" cy="0" cx="0"></circle><path class="pieCircle" fill="#ECECFF" d="M0,-185A185,185,0,0,1,175.945,57.168L0,0Z"></path><path class="pieCircle" fill="#ffffde" d="M175.945,57.168A185,185,0,0,1,-57.168,175.945L0,0Z"></path><path class="pieCircle" fill="hsl(80, 100%, 56.2745098039%)" d="M-57.168,175.945A185,185,0,0,1,-185,0L0,0Z"></path><path class="pieCircle" fill="hsl(240, 100%, 86.2745098039%)" d="M-185,0A185,185,0,0,1,-108.74,-149.668L0,0Z"></path><path class="pieCircle" fill="hsl(60, 100%, 63.5294117647%)" d="M-108.74,-149.668A185,185,0,0,1,0,-185L0,0Z"></path><text style="text-anchor: middle;" class="slice" transform="translate(112.25110796952396,-81.55520375558064)">30%</text><text style="text-anchor: middle;" class="slice" transform="translate(62.99118183886206,123.62715523113606)">25%</text><text style="text-anchor: middle;" class="slice" transform="translate(-112.25110796952394,81.55520375558066)">20%</text><text style="text-anchor: middle;" class="slice" transform="translate(-123.62715523113604,-62.991181838862104)">15%</text><text style="text-anchor: middle;" class="slice" transform="translate(-42.87610796952397,-131.95909163595255)">10%</text><text class="pieTitleText" y="-200" x="0">问题分类</text><g transform="translate(216,-55)" class="legend"><rect style="fill: rgb(236, 236, 255); stroke: rgb(236, 236, 255);" height="18" width="18"></rect><text y="14" x="22">配置问题</text></g><g transform="translate(216,-33)" class="legend"><rect style="fill: rgb(255, 255, 222); stroke: rgb(255, 255, 222);" height="18" width="18"></rect><text y="14" x="22">语法错误</text></g><g transform="translate(216,-11)" class="legend"><rect style="fill: rgb(181, 255, 32); stroke: rgb(181, 255, 32);" height="18" width="18"></rect><text y="14" x="22">缓存问题</text></g><g transform="translate(216,11)" class="legend"><rect style="fill: rgb(185, 185, 255); stroke: rgb(185, 185, 255);" height="18" width="18"></rect><text y="14" x="22">版本兼容</text></g><g transform="translate(216,33)" class="legend"><rect style="fill: rgb(255, 255, 69); stroke: rgb(255, 255, 69);" height="18" width="18"></rect><text y="14" x="22">其他问题</text></g></g></svg>