<svg aria-roledescription="mindmap" role="graphics-document document" viewBox="5 5 788.8612060546875 519.697509765625" style="max-width: 788.8612060546875px;" xmlns="http://www.w3.org/2000/svg" width="100%" id="container"><style>#container{font-family:"trebuchet ms",verdana,arial,sans-serif;font-size:16px;fill:#333;}@keyframes edge-animation-frame{from{stroke-dashoffset:0;}}@keyframes dash{to{stroke-dashoffset:0;}}#container .edge-animation-slow{stroke-dasharray:9,5!important;stroke-dashoffset:900;animation:dash 50s linear infinite;stroke-linecap:round;}#container .edge-animation-fast{stroke-dasharray:9,5!important;stroke-dashoffset:900;animation:dash 20s linear infinite;stroke-linecap:round;}#container .error-icon{fill:#552222;}#container .error-text{fill:#552222;stroke:#552222;}#container .edge-thickness-normal{stroke-width:1px;}#container .edge-thickness-thick{stroke-width:3.5px;}#container .edge-pattern-solid{stroke-dasharray:0;}#container .edge-thickness-invisible{stroke-width:0;fill:none;}#container .edge-pattern-dashed{stroke-dasharray:3;}#container .edge-pattern-dotted{stroke-dasharray:2;}#container .marker{fill:#333333;stroke:#333333;}#container .marker.cross{stroke:#333333;}#container svg{font-family:"trebuchet ms",verdana,arial,sans-serif;font-size:16px;}#container p{margin:0;}#container .edge{stroke-width:3;}#container .section--1 rect,#container .section--1 path,#container .section--1 circle,#container .section--1 polygon,#container .section--1 path{fill:hsl(240, 100%, 76.2745098039%);}#container .section--1 text{fill:#ffffff;}#container .node-icon--1{font-size:40px;color:#ffffff;}#container .section-edge--1{stroke:hsl(240, 100%, 76.2745098039%);}#container .edge-depth--1{stroke-width:17;}#container .section--1 line{stroke:hsl(60, 100%, 86.2745098039%);stroke-width:3;}#container .disabled,#container .disabled circle,#container .disabled text{fill:lightgray;}#container .disabled text{fill:#efefef;}#container .section-0 rect,#container .section-0 path,#container .section-0 circle,#container .section-0 polygon,#container .section-0 path{fill:hsl(60, 100%, 73.5294117647%);}#container .section-0 text{fill:black;}#container .node-icon-0{font-size:40px;color:black;}#container .section-edge-0{stroke:hsl(60, 100%, 73.5294117647%);}#container .edge-depth-0{stroke-width:14;}#container .section-0 line{stroke:hsl(240, 100%, 83.5294117647%);stroke-width:3;}#container .disabled,#container .disabled circle,#container .disabled text{fill:lightgray;}#container .disabled text{fill:#efefef;}#container .section-1 rect,#container .section-1 path,#container .section-1 circle,#container .section-1 polygon,#container .section-1 path{fill:hsl(80, 100%, 76.2745098039%);}#container .section-1 text{fill:black;}#container .node-icon-1{font-size:40px;color:black;}#container .section-edge-1{stroke:hsl(80, 100%, 76.2745098039%);}#container .edge-depth-1{stroke-width:11;}#container .section-1 line{stroke:hsl(260, 100%, 86.2745098039%);stroke-width:3;}#container .disabled,#container .disabled circle,#container .disabled text{fill:lightgray;}#container .disabled text{fill:#efefef;}#container .section-2 rect,#container .section-2 path,#container .section-2 circle,#container .section-2 polygon,#container .section-2 path{fill:hsl(270, 100%, 76.2745098039%);}#container .section-2 text{fill:#ffffff;}#container .node-icon-2{font-size:40px;color:#ffffff;}#container .section-edge-2{stroke:hsl(270, 100%, 76.2745098039%);}#container .edge-depth-2{stroke-width:8;}#container .section-2 line{stroke:hsl(90, 100%, 86.2745098039%);stroke-width:3;}#container .disabled,#container .disabled circle,#container .disabled text{fill:lightgray;}#container .disabled text{fill:#efefef;}#container .section-3 rect,#container .section-3 path,#container .section-3 circle,#container .section-3 polygon,#container .section-3 path{fill:hsl(300, 100%, 76.2745098039%);}#container .section-3 text{fill:black;}#container .node-icon-3{font-size:40px;color:black;}#container .section-edge-3{stroke:hsl(300, 100%, 76.2745098039%);}#container .edge-depth-3{stroke-width:5;}#container .section-3 line{stroke:hsl(120, 100%, 86.2745098039%);stroke-width:3;}#container .disabled,#container .disabled circle,#container .disabled text{fill:lightgray;}#container .disabled text{fill:#efefef;}#container .section-4 rect,#container .section-4 path,#container .section-4 circle,#container .section-4 polygon,#container .section-4 path{fill:hsl(330, 100%, 76.2745098039%);}#container .section-4 text{fill:black;}#container .node-icon-4{font-size:40px;color:black;}#container .section-edge-4{stroke:hsl(330, 100%, 76.2745098039%);}#container .edge-depth-4{stroke-width:2;}#container .section-4 line{stroke:hsl(150, 100%, 86.2745098039%);stroke-width:3;}#container .disabled,#container .disabled circle,#container .disabled text{fill:lightgray;}#container .disabled text{fill:#efefef;}#container .section-5 rect,#container .section-5 path,#container .section-5 circle,#container .section-5 polygon,#container .section-5 path{fill:hsl(0, 100%, 76.2745098039%);}#container .section-5 text{fill:black;}#container .node-icon-5{font-size:40px;color:black;}#container .section-edge-5{stroke:hsl(0, 100%, 76.2745098039%);}#container .edge-depth-5{stroke-width:-1;}#container .section-5 line{stroke:hsl(180, 100%, 86.2745098039%);stroke-width:3;}#container .disabled,#container .disabled circle,#container .disabled text{fill:lightgray;}#container .disabled text{fill:#efefef;}#container .section-6 rect,#container .section-6 path,#container .section-6 circle,#container .section-6 polygon,#container .section-6 path{fill:hsl(30, 100%, 76.2745098039%);}#container .section-6 text{fill:black;}#container .node-icon-6{font-size:40px;color:black;}#container .section-edge-6{stroke:hsl(30, 100%, 76.2745098039%);}#container .edge-depth-6{stroke-width:-4;}#container .section-6 line{stroke:hsl(210, 100%, 86.2745098039%);stroke-width:3;}#container .disabled,#container .disabled circle,#container .disabled text{fill:lightgray;}#container .disabled text{fill:#efefef;}#container .section-7 rect,#container .section-7 path,#container .section-7 circle,#container .section-7 polygon,#container .section-7 path{fill:hsl(90, 100%, 76.2745098039%);}#container .section-7 text{fill:black;}#container .node-icon-7{font-size:40px;color:black;}#container .section-edge-7{stroke:hsl(90, 100%, 76.2745098039%);}#container .edge-depth-7{stroke-width:-7;}#container .section-7 line{stroke:hsl(270, 100%, 86.2745098039%);stroke-width:3;}#container .disabled,#container .disabled circle,#container .disabled text{fill:lightgray;}#container .disabled text{fill:#efefef;}#container .section-8 rect,#container .section-8 path,#container .section-8 circle,#container .section-8 polygon,#container .section-8 path{fill:hsl(150, 100%, 76.2745098039%);}#container .section-8 text{fill:black;}#container .node-icon-8{font-size:40px;color:black;}#container .section-edge-8{stroke:hsl(150, 100%, 76.2745098039%);}#container .edge-depth-8{stroke-width:-10;}#container .section-8 line{stroke:hsl(330, 100%, 86.2745098039%);stroke-width:3;}#container .disabled,#container .disabled circle,#container .disabled text{fill:lightgray;}#container .disabled text{fill:#efefef;}#container .section-9 rect,#container .section-9 path,#container .section-9 circle,#container .section-9 polygon,#container .section-9 path{fill:hsl(180, 100%, 76.2745098039%);}#container .section-9 text{fill:black;}#container .node-icon-9{font-size:40px;color:black;}#container .section-edge-9{stroke:hsl(180, 100%, 76.2745098039%);}#container .edge-depth-9{stroke-width:-13;}#container .section-9 line{stroke:hsl(0, 100%, 86.2745098039%);stroke-width:3;}#container .disabled,#container .disabled circle,#container .disabled text{fill:lightgray;}#container .disabled text{fill:#efefef;}#container .section-10 rect,#container .section-10 path,#container .section-10 circle,#container .section-10 polygon,#container .section-10 path{fill:hsl(210, 100%, 76.2745098039%);}#container .section-10 text{fill:black;}#container .node-icon-10{font-size:40px;color:black;}#container .section-edge-10{stroke:hsl(210, 100%, 76.2745098039%);}#container .edge-depth-10{stroke-width:-16;}#container .section-10 line{stroke:hsl(30, 100%, 86.2745098039%);stroke-width:3;}#container .disabled,#container .disabled circle,#container .disabled text{fill:lightgray;}#container .disabled text{fill:#efefef;}#container .section-root rect,#container .section-root path,#container .section-root circle,#container .section-root polygon{fill:hsl(240, 100%, 46.2745098039%);}#container .section-root text{fill:#ffffff;}#container .icon-container{height:100%;display:flex;justify-content:center;align-items:center;}#container .edge{fill:none;}#container .mindmap-node-label{dy:1em;alignment-baseline:middle;text-anchor:middle;dominant-baseline:middle;text-align:center;}#container :root{--mermaid-font-family:"trebuchet ms",verdana,arial,sans-serif;}</style><g></g><g class="mindmap-edges"><path class="edge section-edge-0 edge-depth-1" d="M 521.3303356258206,124.67974088396475 L 566.1611086321403,98.40827323312956 L610.9918816384601,72.13680558229437"></path><path class="edge section-edge-0 edge-depth-1" d="M 523.3172951769778,133.7263367373173 L 565.0945111796228,137.8195668707667 L606.8717271822678,141.9127970042161"></path><path class="edge section-edge-0 edge-depth-1" d="M 512.1283914426825,117.73731151118639 L 520.7129484847678,84.39097427288678 L529.2975055268531,51.044637034587154"></path><path class="edge section-edge-0 edge-depth-0" d="M 436.22173709664423,207.13173033547093 L 467.10025565472927,175.09751429984107 L497.9787742128143,143.06329826421114"></path><path class="edge section-edge-1 edge-depth-1" d="M 269.5402064502878,231.46237563635034 L 245.37517188181323,261.0896007802413 L221.21013731333866,290.7168259241323"></path><path class="edge section-edge-1 edge-depth-1" d="M 285.3251390474345,233.44948955236146 L 298.1799326494512,261.2038167203974 L311.0347262514679,288.9581438884334"></path><path class="edge section-edge-1 edge-depth-1" d="M 264.15042049008497,221.80442799881797 L 226.3405434498215,226.80290728309492 L188.53066640955802,231.80138656737188"></path><path class="edge section-edge-1 edge-depth-2" d="M 158.86967870955547,143.00179310638808 L 148.06487945470496,112.17843489300103 L137.26008019985446,81.35507667961397"></path><path class="edge section-edge-1 edge-depth-2" d="M 148.8416072070621,156.61318628979467 L 102.18539914787056,154.91969538386078 L55.52919108867901,153.2262044779269"></path><path class="edge section-edge-1 edge-depth-1" d="M 265.8454315786719,212.668909123203 L 221.4263863739228,188.4979067726098 L177.00734116917374,164.3269044220166"></path><path class="edge section-edge-1 edge-depth-0" d="M 410.81299921906486,218.12622249413832 L 352.4163851485191,218.88493944501832 L294.01977107797336,219.64365639589832"></path><path class="edge section-edge-2 edge-depth-1" d="M 606.4396465481867,233.84303860714164 L 656.0734235811809,214.51361954013342 L705.7072006141751,195.1842004731252"></path><path class="edge section-edge-2 edge-depth-1" d="M 599.822039242412,252.35672508705713 L 616.9975123478723,282.8584733165504 L634.1729854533327,313.36022154604365"></path><path class="edge section-edge-2 edge-depth-1" d="M 607.1394523742335,242.38123459102516 L 666.7320004132123,254.9467272029632 L726.324548452191,267.51221981490124"></path><path class="edge section-edge-2 edge-depth-1" d="M 581.6496559961756,249.68303043010604 L 555.4219334692363,274.90183836858864 L529.1942109422969,300.1206463070712"></path><path class="edge section-edge-2 edge-depth-0" d="M 440.6900749616866,219.83790638928897 L 509.1369587259685,228.6088924109129 L577.5838424902504,237.3798784325368"></path><path class="edge section-edge-3 edge-depth-2" d="M 524.7848046314284,408.0616301509989 L 576.6318872608911,428.11695670653467 L628.4789698903537,448.17228326207044"></path><path class="edge section-edge-3 edge-depth-2" d="M 509.114444465318,417.5556885969564 L 505.54403642681814,449.22381470704977 L501.9736283883183,480.89194081714317"></path><path class="edge section-edge-3 edge-depth-1" d="M 426.9076936054361,334.7983711627598 L 463.02005604273154,364.0076546164274 L499.13241848002696,393.21693807009495"></path><path class="edge section-edge-3 edge-depth-2" d="M 303.0106376332484,408.89085851737855 L 300.7260136031308,440.82837186629365 L298.4413895730132,472.76588521520875"></path><path class="edge section-edge-3 edge-depth-2" d="M 289.38005136528614,396.9097937531253 L 245.0830649357618,405.8913185400652 L200.78607850623746,414.87284332700506"></path><path class="edge section-edge-3 edge-depth-1" d="M 402.47823176820066,333.23956638500727 L 359.6630311448723,359.64713770983064 L316.847830521544,386.05470903465414"></path><path class="edge section-edge-3 edge-depth-1" d="M 413.90491121678093,340.30519066627926 L 411.10175298910053,371.55283241212 L408.29859476142013,402.8004741579606"></path><path class="edge section-edge-3 edge-depth-0" d="M 424.3435022846964,232.8593220218482 L 420.52844004671,271.6482683661551 L416.7133778087236,310.43721471046206"></path><path class="edge section-edge-4 edge-depth-1" d="M 371.3378812738498,119.12105199281717 L 398.24952183740527,93.7269939969494 L425.16116240096073,68.33293600108163"></path><path class="edge section-edge-4 edge-depth-1" d="M 357.30500146581903,114.7443187761377 L 350.26173792522013,81.65779238470745 L343.21847438462123,48.571265993277194"></path><path class="edge section-edge-4 edge-depth-1" d="M 345.5076955535851,130.95848117870588 L 313.1807475919379,134.3013543484354 L280.8537996302907,137.64422751816494"></path><path class="edge section-edge-4 edge-depth-1" d="M 348.0405803451404,120.95694864741597 L 309.2298788158719,94.45570212555006 L270.41917728660343,67.95445560368414"></path><path class="edge section-edge-4 edge-depth-0" d="M 416.899490563576,205.8660324625302 L 393.1199334586149,173.67346824100812 L369.3403763536538,141.48090401948605"></path></g><g class="mindmap-nodes"><g transform="translate(375.8039208449337, 199.03135171260135)" class="mindmap-node section--1 section-root"><g transform="translate(50.0078125, 18.9)"><circle r="50.0078125" class="node-bkg node-circle" id="node-0"></circle></g><g transform="translate(50.0078125, 5)" text-anchor="middle" dominant-baseline="middle" alignment-baseline="middle" dy="1em"><g><rect style="stroke: none" class="background"></rect><text style="" y="-10.1"><tspan dy="1.1em" y="-0.1em" x="0" class="text-outer-tspan"><tspan font-weight="normal" class="text-inner-tspan" font-style="normal">前端技术栈</tspan></tspan></text></g></g></g><g transform="translate(478.74874805729826, 113.36367688708071)" class="mindmap-node section-0"><g><path d="M0 32.8 v-27.799999999999997 q0,-5 5,-5 h49.280059814453125 q5,0 5,5 v32.8 H0 Z" class="node-bkg node-no-border" id="node-1"></path><line y2="37.8" x2="59.280059814453125" y1="37.8" x1="0" class="node-line-0"></line></g><g transform="translate(29.640029907226562, 5)" text-anchor="middle" dominant-baseline="middle" alignment-baseline="middle" dy="1em"><g><rect style="stroke: none" class="background"></rect><text style="" y="-10.1"><tspan dy="1.1em" y="-0.1em" x="0" class="text-outer-tspan"><tspan font-weight="normal" class="text-inner-tspan" font-style="normal">HTML</tspan></tspan></text></g></g></g><g transform="translate(255.8570202284717, 200.93852717743528)" class="mindmap-node section-1"><g><path d="M0 32.8 v-27.799999999999997 q0,-5 5,-5 h36.328033447265625 q5,0 5,5 v32.8 H0 Z" class="node-bkg node-no-border" id="node-5"></path><line y2="37.8" x2="46.328033447265625" y1="37.8" x1="0" class="node-line-1"></line></g><g transform="translate(23.164016723632812, 5)" text-anchor="middle" dominant-baseline="middle" alignment-baseline="middle" dy="1em"><g><rect style="stroke: none" class="background"></rect><text style="" y="-10.1"><tspan dy="1.1em" y="-0.1em" x="0" class="text-outer-tspan"><tspan font-weight="normal" class="text-inner-tspan" font-style="normal">CSS</tspan></tspan></text></g></g></g><g transform="translate(546.3501235601283, 220.3864331092244)" class="mindmap-node section-2"><g><path d="M0 32.8 v-27.799999999999997 q0,-5 5,-5 h82.22412109375 q5,0 5,5 v32.8 H0 Z" class="node-bkg node-no-border" id="node-12"></path><line y2="37.8" x2="92.22412109375" y1="37.8" x1="0" class="node-line-2"></line></g><g transform="translate(46.112060546875, 5)" text-anchor="middle" dominant-baseline="middle" alignment-baseline="middle" dy="1em"><g><rect style="stroke: none" class="background"></rect><text style="" y="-10.1"><tspan dy="1.1em" y="-0.1em" x="0" class="text-outer-tspan"><tspan font-weight="normal" class="text-inner-tspan" font-style="normal">JavaScript</tspan></tspan></text></g></g></g><g transform="translate(389.23733424848626, 306.4651850197089)" class="mindmap-node section-3"><g><path d="M0 32.8 v-27.799999999999997 q0,-5 5,-5 h42.015625 q5,0 5,5 v32.8 H0 Z" class="node-bkg node-no-border" id="node-17"></path><line y2="37.8" x2="52.015625" y1="37.8" x1="0" class="node-line-3"></line></g><g transform="translate(26.0078125, 5)" text-anchor="middle" dominant-baseline="middle" alignment-baseline="middle" dy="1em"><g><rect style="stroke: none" class="background"></rect><text style="" y="-10.1"><tspan dy="1.1em" y="-0.1em" x="0" class="text-outer-tspan"><tspan font-weight="normal" class="text-inner-tspan" font-style="normal">框架</tspan></tspan></text></g></g></g><g transform="translate(334.42032107229613, 110.51558476941489)" class="mindmap-node section-4"><g><path d="M0 32.8 v-27.799999999999997 q0,-5 5,-5 h42.015625 q5,0 5,5 v32.8 H0 Z" class="node-bkg node-no-border" id="node-25"></path><line y2="37.8" x2="52.015625" y1="37.8" x1="0" class="node-line-4"></line></g><g transform="translate(26.0078125, 5)" text-anchor="middle" dominant-baseline="middle" alignment-baseline="middle" dy="1em"><g><rect style="stroke: none" class="background"></rect><text style="" y="-10.1"><tspan dy="1.1em" y="-0.1em" x="0" class="text-outer-tspan"><tspan font-weight="normal" class="text-inner-tspan" font-style="normal">工具</tspan></tspan></text></g></g></g><g transform="translate(590.3787517997558, 45.65286957917841)" class="mindmap-node section-0"><g><path d="M0 32.8 v-27.799999999999997 q0,-5 5,-5 h57.109375 q5,0 5,5 v32.8 H0 Z" class="node-bkg node-no-border" id="node-2"></path><line y2="37.8" x2="67.109375" y1="37.8" x1="0" class="node-line-0"></line></g><g transform="translate(33.5546875, 5)" text-anchor="middle" dominant-baseline="middle" alignment-baseline="middle" dy="1em"><g><rect style="stroke: none" class="background"></rect><text style="" y="-10.1"><tspan dy="1.1em" y="-0.1em" x="0" class="text-outer-tspan"><tspan font-weight="normal" class="text-inner-tspan" font-style="normal">HTML5</tspan></tspan></text></g></g></g><g transform="translate(587.7924318947208, 124.47545685445266)" class="mindmap-node section-0"><g><path d="M0 32.8 v-27.799999999999997 q0,-5 5,-5 h58.015625 q5,0 5,5 v32.8 H0 Z" class="node-bkg node-no-border" id="node-3"></path><line y2="37.8" x2="68.015625" y1="37.8" x1="0" class="node-line-0"></line></g><g transform="translate(34.0078125, 5)" text-anchor="middle" dominant-baseline="middle" alignment-baseline="middle" dy="1em"><g><rect style="stroke: none" class="background"></rect><text style="" y="-10.1"><tspan dy="1.1em" y="-0.1em" x="0" class="text-outer-tspan"><tspan font-weight="normal" class="text-inner-tspan" font-style="normal">语义化</tspan></tspan></text></g></g></g><g transform="translate(507.0293065050108, 17.618271658692834)" class="mindmap-node section-0"><g><path d="M0 32.8 v-27.799999999999997 q0,-5 5,-5 h42.015625 q5,0 5,5 v32.8 H0 Z" class="node-bkg node-no-border" id="node-4"></path><line y2="37.8" x2="52.015625" y1="37.8" x1="0" class="node-line-0"></line></g><g transform="translate(26.0078125, 5)" text-anchor="middle" dominant-baseline="middle" alignment-baseline="middle" dy="1em"><g><rect style="stroke: none" class="background"></rect><text style="" y="-10.1"><tspan dy="1.1em" y="-0.1em" x="0" class="text-outer-tspan"><tspan font-weight="normal" class="text-inner-tspan" font-style="normal">表单</tspan></tspan></text></g></g></g><g transform="translate(184.70528184814304, 283.4406743830474)" class="mindmap-node section-1"><g><path d="M0 32.8 v-27.799999999999997 q0,-5 5,-5 h44.04804992675781 q5,0 5,5 v32.8 H0 Z" class="node-bkg node-no-border" id="node-6"></path><line y2="37.8" x2="54.04804992675781" y1="37.8" x1="0" class="node-line-1"></line></g><g transform="translate(27.024024963378906, 5)" text-anchor="middle" dominant-baseline="middle" alignment-baseline="middle" dy="1em"><g><rect style="stroke: none" class="background"></rect><text style="" y="-10.1"><tspan dy="1.1em" y="-0.1em" x="0" class="text-outer-tspan"><tspan font-weight="normal" class="text-inner-tspan" font-style="normal">CSS3</tspan></tspan></text></g></g></g><g transform="translate(279.6667855001182, 283.6691062633596)" class="mindmap-node section-1"><g><path d="M0 32.8 v-27.799999999999997 q0,-5 5,-5 h65.34408569335938 q5,0 5,5 v32.8 H0 Z" class="node-bkg node-no-border" id="node-7"></path><line y2="37.8" x2="75.34408569335938" y1="37.8" x1="0" class="node-line-1"></line></g><g transform="translate(37.67204284667969, 5)" text-anchor="middle" dominant-baseline="middle" alignment-baseline="middle" dy="1em"><g><rect style="stroke: none" class="background"></rect><text style="" y="-10.1"><tspan dy="1.1em" y="-0.1em" x="0" class="text-outer-tspan"><tspan font-weight="normal" class="text-inner-tspan" font-style="normal">Flexbox</tspan></tspan></text></g></g></g><g transform="translate(148.48036244753848, 214.86728738875456)" class="mindmap-node section-1"><g><path d="M0 32.8 v-27.799999999999997 q0,-5 5,-5 h40.359375 q5,0 5,5 v32.8 H0 Z" class="node-bkg node-no-border" id="node-8"></path><line y2="37.8" x2="50.359375" y1="37.8" x1="0" class="node-line-1"></line></g><g transform="translate(25.1796875, 5)" text-anchor="middle" dominant-baseline="middle" alignment-baseline="middle" dy="1em"><g><rect style="stroke: none" class="background"></rect><text style="" y="-10.1"><tspan dy="1.1em" y="-0.1em" x="0" class="text-outer-tspan"><tspan font-weight="normal" class="text-inner-tspan" font-style="normal">Grid</tspan></tspan></text></g></g></g><g transform="translate(121.82392329574111, 138.25728636778433)" class="mindmap-node section-1"><g><path d="M0 32.8 v-27.799999999999997 q0,-5 5,-5 h74.015625 q5,0 5,5 v32.8 H0 Z" class="node-bkg node-no-border" id="node-9"></path><line y2="37.8" x2="84.015625" y1="37.8" x1="0" class="node-line-1"></line></g><g transform="translate(42.0078125, 5)" text-anchor="middle" dominant-baseline="middle" alignment-baseline="middle" dy="1em"><g><rect style="stroke: none" class="background"></rect><text style="" y="-10.1"><tspan dy="1.1em" y="-0.1em" x="0" class="text-outer-tspan"><tspan font-weight="normal" class="text-inner-tspan" font-style="normal">预处理器</tspan></tspan></text></g></g></g><g transform="translate(692.8643505553586, 170.8408059710424)" class="mindmap-node section-2"><g><path d="M0 32.8 v-27.799999999999997 q0,-5 5,-5 h43.640625 q5,0 5,5 v32.8 H0 Z" class="node-bkg node-no-border" id="node-13"></path><line y2="37.8" x2="53.640625" y1="37.8" x1="0" class="node-line-2"></line></g><g transform="translate(26.8203125, 5)" text-anchor="middle" dominant-baseline="middle" alignment-baseline="middle" dy="1em"><g><rect style="stroke: none" class="background"></rect><text style="" y="-10.1"><tspan dy="1.1em" y="-0.1em" x="0" class="text-outer-tspan"><tspan font-weight="normal" class="text-inner-tspan" font-style="normal">ES6+</tspan></tspan></text></g></g></g><g transform="translate(599.5250280887414, 307.5305135238764)" class="mindmap-node section-2"><g><path d="M0 32.8 v-27.799999999999997 q0,-5 5,-5 h74.015625 q5,0 5,5 v32.8 H0 Z" class="node-bkg node-no-border" id="node-14"></path><line y2="37.8" x2="84.015625" y1="37.8" x1="0" class="node-line-2"></line></g><g transform="translate(42.0078125, 5)" text-anchor="middle" dominant-baseline="middle" alignment-baseline="middle" dy="1em"><g><rect style="stroke: none" class="background"></rect><text style="" y="-10.1"><tspan dy="1.1em" y="-0.1em" x="0" class="text-outer-tspan"><tspan font-weight="normal" class="text-inner-tspan" font-style="normal">异步编程</tspan></tspan></text></g></g></g><g transform="translate(698.1424417194213, 251.70702129670198)" class="mindmap-node section-2"><g><path d="M0 32.8 v-27.799999999999997 q0,-5 5,-5 h75.71875 q5,0 5,5 v32.8 H0 Z" class="node-bkg node-no-border" id="node-15"></path><line y2="37.8" x2="85.71875" y1="37.8" x1="0" class="node-line-2"></line></g><g transform="translate(42.859375, 5)" text-anchor="middle" dominant-baseline="middle" alignment-baseline="middle" dy="1em"><g><rect style="stroke: none" class="background"></rect><text style="" y="-10.1"><tspan dy="1.1em" y="-0.1em" x="0" class="text-outer-tspan"><tspan font-weight="normal" class="text-inner-tspan" font-style="normal">DOM操作</tspan></tspan></text></g></g></g><g transform="translate(476.3738703314692, 291.6172436279528)" class="mindmap-node section-2"><g><path d="M0 32.8 v-27.799999999999997 q0,-5 5,-5 h74.015625 q5,0 5,5 v32.8 H0 Z" class="node-bkg node-no-border" id="node-16"></path><line y2="37.8" x2="84.015625" y1="37.8" x1="0" class="node-line-2"></line></g><g transform="translate(42.0078125, 5)" text-anchor="middle" dominant-baseline="middle" alignment-baseline="middle" dy="1em"><g><rect style="stroke: none" class="background"></rect><text style="" y="-10.1"><tspan dy="1.1em" y="-0.1em" x="0" class="text-outer-tspan"><tspan font-weight="normal" class="text-inner-tspan" font-style="normal">事件处理</tspan></tspan></text></g></g></g><g transform="translate(479.6699653369768, 383.7501242131459)" class="mindmap-node section-3"><g><path d="M0 32.8 v-27.799999999999997 q0,-5 5,-5 h52.25 q5,0 5,5 v32.8 H0 Z" class="node-bkg node-no-border" id="node-18"></path><line y2="37.8" x2="62.25" y1="37.8" x1="0" class="node-line-3"></line></g><g transform="translate(31.125, 5)" text-anchor="middle" dominant-baseline="middle" alignment-baseline="middle" dy="1em"><g><rect style="stroke: none" class="background"></rect><text style="" y="-10.1"><tspan dy="1.1em" y="-0.1em" x="0" class="text-outer-tspan"><tspan font-weight="normal" class="text-inner-tspan" font-style="normal">Vue.js</tspan></tspan></text></g></g></g><g transform="translate(273.90488252123885, 375.02909039995257)" class="mindmap-node section-3"><g><path d="M0 32.8 v-27.799999999999997 q0,-5 5,-5 h50.35206604003906 q5,0 5,5 v32.8 H0 Z" class="node-bkg node-no-border" id="node-21"></path><line y2="37.8" x2="60.35206604003906" y1="37.8" x1="0" class="node-line-3"></line></g><g transform="translate(30.17603302001953, 5)" text-anchor="middle" dominant-baseline="middle" alignment-baseline="middle" dy="1em"><g><rect style="stroke: none" class="background"></rect><text style="" y="-10.1"><tspan dy="1.1em" y="-0.1em" x="0" class="text-outer-tspan"><tspan font-weight="normal" class="text-inner-tspan" font-style="normal">React</tspan></tspan></text></g></g></g><g transform="translate(368.79431198850386, 398.840479804531)" class="mindmap-node section-3"><g><path d="M0 32.8 v-27.799999999999997 q0,-5 5,-5 h66.32809448242188 q5,0 5,5 v32.8 H0 Z" class="node-bkg node-no-border" id="node-24"></path><line y2="37.8" x2="76.32809448242188" y1="37.8" x1="0" class="node-line-3"></line></g><g transform="translate(38.16404724121094, 5)" text-anchor="middle" dominant-baseline="middle" alignment-baseline="middle" dy="1em"><g><rect style="stroke: none" class="background"></rect><text style="" y="-10.1"><tspan dy="1.1em" y="-0.1em" x="0" class="text-outer-tspan"><tspan font-weight="normal" class="text-inner-tspan" font-style="normal">Angular</tspan></tspan></text></g></g></g><g transform="translate(393.08285773435034, 39.13840322448391)" class="mindmap-node section-4"><g><path d="M0 32.8 v-27.799999999999997 q0,-5 5,-5 h75.97610473632812 q5,0 5,5 v32.8 H0 Z" class="node-bkg node-no-border" id="node-26"></path><line y2="37.8" x2="85.97610473632812" y1="37.8" x1="0" class="node-line-4"></line></g><g transform="translate(42.98805236816406, 5)" text-anchor="middle" dominant-baseline="middle" alignment-baseline="middle" dy="1em"><g><rect style="stroke: none" class="background"></rect><text style="" y="-10.1"><tspan dy="1.1em" y="-0.1em" x="0" class="text-outer-tspan"><tspan font-weight="normal" class="text-inner-tspan" font-style="normal">Webpack</tspan></tspan></text></g></g></g><g transform="translate(316.25940477814413, 15)" class="mindmap-node section-4"><g><path d="M0 32.8 v-27.799999999999997 q0,-5 5,-5 h37.671875 q5,0 5,5 v32.8 H0 Z" class="node-bkg node-no-border" id="node-27"></path><line y2="37.8" x2="47.671875" y1="37.8" x1="0" class="node-line-4"></line></g><g transform="translate(23.8359375, 5)" text-anchor="middle" dominant-baseline="middle" alignment-baseline="middle" dy="1em"><g><rect style="stroke: none" class="background"></rect><text style="" y="-10.1"><tspan dy="1.1em" y="-0.1em" x="0" class="text-outer-tspan"><tspan font-weight="normal" class="text-inner-tspan" font-style="normal">Vite</tspan></tspan></text></g></g></g><g transform="translate(245.62934549829845, 120.28712392745592)" class="mindmap-node section-4"><g><path d="M0 32.8 v-27.799999999999997 q0,-5 5,-5 h30.6080322265625 q5,0 5,5 v32.8 H0 Z" class="node-bkg node-no-border" id="node-28"></path><line y2="37.8" x2="40.6080322265625" y1="37.8" x1="0" class="node-line-4"></line></g><g transform="translate(20.30401611328125, 5)" text-anchor="middle" dominant-baseline="middle" alignment-baseline="middle" dy="1em"><g><rect style="stroke: none" class="background"></rect><text style="" y="-10.1"><tspan dy="1.1em" y="-0.1em" x="0" class="text-outer-tspan"><tspan font-weight="normal" class="text-inner-tspan" font-style="normal">Git</tspan></tspan></text></g></g></g><g transform="translate(231.73474905944772, 40.595819481685226)" class="mindmap-node section-4"><g><path d="M0 32.8 v-27.799999999999997 q0,-5 5,-5 h42.59375 q5,0 5,5 v32.8 H0 Z" class="node-bkg node-no-border" id="node-29"></path><line y2="37.8" x2="52.59375" y1="37.8" x1="0" class="node-line-4"></line></g><g transform="translate(26.296875, 5)" text-anchor="middle" dominant-baseline="middle" alignment-baseline="middle" dy="1em"><g><rect style="stroke: none" class="background"></rect><text style="" y="-10.1"><tspan dy="1.1em" y="-0.1em" x="0" class="text-outer-tspan"><tspan font-weight="normal" class="text-inner-tspan" font-style="normal">npm</tspan></tspan></text></g></g></g><g transform="translate(106.26677311366882, 48.299583418217715)" class="mindmap-node section-1"><g><path d="M0 32.8 v-27.799999999999997 q0,-5 5,-5 h42.0625 q5,0 5,5 v32.8 H0 Z" class="node-bkg node-no-border" id="node-10"></path><line y2="37.8" x2="52.0625" y1="37.8" x1="0" class="node-line-1"></line></g><g transform="translate(26.03125, 5)" text-anchor="middle" dominant-baseline="middle" alignment-baseline="middle" dy="1em"><g><rect style="stroke: none" class="background"></rect><text style="" y="-10.1"><tspan dy="1.1em" y="-0.1em" x="0" class="text-outer-tspan"><tspan font-weight="normal" class="text-inner-tspan" font-style="normal">Sass</tspan></tspan></text></g></g></g><g transform="translate(15, 133.78210439993723)" class="mindmap-node section-1"><g><path d="M0 32.8 v-27.799999999999997 q0,-5 5,-5 h41.078125 q5,0 5,5 v32.8 H0 Z" class="node-bkg node-no-border" id="node-11"></path><line y2="37.8" x2="51.078125" y1="37.8" x1="0" class="node-line-1"></line></g><g transform="translate(25.5390625, 5)" text-anchor="middle" dominant-baseline="middle" alignment-baseline="middle" dy="1em"><g><rect style="stroke: none" class="background"></rect><text style="" y="-10.1"><tspan dy="1.1em" y="-0.1em" x="0" class="text-outer-tspan"><tspan font-weight="normal" class="text-inner-tspan" font-style="normal">Less</tspan></tspan></text></g></g></g><g transform="translate(592.3680782888092, 434.68378919992347)" class="mindmap-node section-3"><g><path d="M0 32.8 v-27.799999999999997 q0,-5 5,-5 h90.20146179199219 q5,0 5,5 v32.8 H0 Z" class="node-bkg node-no-border" id="node-19"></path><line y2="37.8" x2="100.20146179199219" y1="37.8" x1="0" class="node-line-3"></line></g><g transform="translate(50.100730895996094, 5)" text-anchor="middle" dominant-baseline="middle" alignment-baseline="middle" dy="1em"><g><rect style="stroke: none" class="background"></rect><text style="" y="-10.1"><tspan dy="1.1em" y="-0.1em" x="0" class="text-outer-tspan"><tspan font-weight="normal" class="text-inner-tspan" font-style="normal">Vue</tspan><tspan font-weight="normal" class="text-inner-tspan" font-style="normal"> Router</tspan></tspan></text></g></g></g><g transform="translate(473.0610899995696, 476.8975052009537)" class="mindmap-node section-3"><g><path d="M0 32.8 v-27.799999999999997 q0,-5 5,-5 h44.46403503417969 q5,0 5,5 v32.8 H0 Z" class="node-bkg node-no-border" id="node-20"></path><line y2="37.8" x2="54.46403503417969" y1="37.8" x1="0" class="node-line-3"></line></g><g transform="translate(27.232017517089844, 5)" text-anchor="middle" dominant-baseline="middle" alignment-baseline="middle" dy="1em"><g><rect style="stroke: none" class="background"></rect><text style="" y="-10.1"><tspan dy="1.1em" y="-0.1em" x="0" class="text-outer-tspan"><tspan font-weight="normal" class="text-inner-tspan" font-style="normal">Vuex</tspan></tspan></text></g></g></g><g transform="translate(240.50475576900715, 468.8276533326348)" class="mindmap-node section-3"><g><path d="M0 32.8 v-27.799999999999997 q0,-5 5,-5 h103.73271179199219 q5,0 5,5 v32.8 H0 Z" class="node-bkg node-no-border" id="node-22"></path><line y2="37.8" x2="113.73271179199219" y1="37.8" x1="0" class="node-line-3"></line></g><g transform="translate(56.866355895996094, 5)" text-anchor="middle" dominant-baseline="middle" alignment-baseline="middle" dy="1em"><g><rect style="stroke: none" class="background"></rect><text style="" y="-10.1"><tspan dy="1.1em" y="-0.1em" x="0" class="text-outer-tspan"><tspan font-weight="normal" class="text-inner-tspan" font-style="normal">React</tspan><tspan font-weight="normal" class="text-inner-tspan" font-style="normal"> Router</tspan></tspan></text></g></g></g><g transform="translate(153.56517954022615, 398.95354668017785)" class="mindmap-node section-3"><g><path d="M0 32.8 v-27.799999999999997 q0,-5 5,-5 h55.040069580078125 q5,0 5,5 v32.8 H0 Z" class="node-bkg node-no-border" id="node-23"></path><line y2="37.8" x2="65.04006958007812" y1="37.8" x1="0" class="node-line-3"></line></g><g transform="translate(32.52003479003906, 5)" text-anchor="middle" dominant-baseline="middle" alignment-baseline="middle" dy="1em"><g><rect style="stroke: none" class="background"></rect><text style="" y="-10.1"><tspan dy="1.1em" y="-0.1em" x="0" class="text-outer-tspan"><tspan font-weight="normal" class="text-inner-tspan" font-style="normal">Redux</tspan></tspan></text></g></g></g></g></svg>