<svg aria-roledescription="pie" role="graphics-document document" style="max-width: 580px;" viewBox="0 0 580 450" xmlns="http://www.w3.org/2000/svg" width="100%" id="container"><style>#container{font-family:"trebuchet ms",verdana,arial,sans-serif;font-size:16px;fill:#333;}@keyframes edge-animation-frame{from{stroke-dashoffset:0;}}@keyframes dash{to{stroke-dashoffset:0;}}#container .edge-animation-slow{stroke-dasharray:9,5!important;stroke-dashoffset:900;animation:dash 50s linear infinite;stroke-linecap:round;}#container .edge-animation-fast{stroke-dasharray:9,5!important;stroke-dashoffset:900;animation:dash 20s linear infinite;stroke-linecap:round;}#container .error-icon{fill:#552222;}#container .error-text{fill:#552222;stroke:#552222;}#container .edge-thickness-normal{stroke-width:1px;}#container .edge-thickness-thick{stroke-width:3.5px;}#container .edge-pattern-solid{stroke-dasharray:0;}#container .edge-thickness-invisible{stroke-width:0;fill:none;}#container .edge-pattern-dashed{stroke-dasharray:3;}#container .edge-pattern-dotted{stroke-dasharray:2;}#container .marker{fill:#333333;stroke:#333333;}#container .marker.cross{stroke:#333333;}#container svg{font-family:"trebuchet ms",verdana,arial,sans-serif;font-size:16px;}#container p{margin:0;}#container .pieCircle{stroke:black;stroke-width:2px;opacity:0.7;}#container .pieOuterCircle{stroke:black;stroke-width:2px;fill:none;}#container .pieTitleText{text-anchor:middle;font-size:25px;fill:black;font-family:"trebuchet ms",verdana,arial,sans-serif;}#container .slice{font-family:"trebuchet ms",verdana,arial,sans-serif;fill:#333;font-size:17px;}#container .legend text{fill:black;font-family:"trebuchet ms",verdana,arial,sans-serif;font-size:17px;}#container :root{--mermaid-font-family:"trebuchet ms",verdana,arial,sans-serif;}</style><g></g><g transform="translate(225,225)"><circle class="pieOuterCircle" r="186" cy="0" cx="0"></circle><path class="pieCircle" fill="#ECECFF" d="M0,-185A185,185,0,0,1,149.668,108.74L0,0Z"></path><path class="pieCircle" fill="#ffffde" d="M149.668,108.74A185,185,0,0,1,-57.168,175.945L0,0Z"></path><path class="pieCircle" fill="hsl(80, 100%, 56.2745098039%)" d="M-57.168,175.945A185,185,0,0,1,-175.945,57.168L0,0Z"></path><path class="pieCircle" fill="hsl(240, 100%, 86.2745098039%)" d="M-175.945,57.168A185,185,0,0,1,-167.393,-78.769L0,0Z"></path><path class="pieCircle" fill="hsl(60, 100%, 63.5294117647%)" d="M-167.393,-78.769A185,185,0,0,1,-89.124,-162.117L0,0Z"></path><path class="pieCircle" fill="hsl(80, 100%, 76.2745098039%)" d="M-89.124,-162.117A185,185,0,0,1,-34.666,-181.723L0,0Z"></path><path class="pieCircle" fill="hsl(300, 100%, 76.2745098039%)" d="M-34.666,-181.723A185,185,0,0,1,0,-185L0,0Z"></path><text style="text-anchor: middle;" class="slice" transform="translate(123.62715523113604,-62.99118183886211)">35%</text><text style="text-anchor: middle;" class="slice" transform="translate(42.87610796952396,131.95909163595255)">20%</text><text style="text-anchor: middle;" class="slice" transform="translate(-98.11106588963347,98.11106588963348)">15%</text><text style="text-anchor: middle;" class="slice" transform="translate(-138.47620856942268,-8.712184584692166)">12%</text><text style="text-anchor: middle;" class="slice" transform="translate(-101.14439705472086,-94.98091094760557)">10%</text><text style="text-anchor: middle;" class="slice" transform="translate(-46.999886434034174,-130.5472066923988)">5%</text><text style="text-anchor: middle;" class="slice" transform="translate(-13.057528472943812,-138.13422258867735)">3%</text><text class="pieTitleText" y="-200" x="0">算法题目分布</text><g transform="translate(216,-77)" class="legend"><rect style="fill: rgb(236, 236, 255); stroke: rgb(236, 236, 255);" height="18" width="18"></rect><text y="14" x="22">数组</text></g><g transform="translate(216,-55)" class="legend"><rect style="fill: rgb(255, 255, 222); stroke: rgb(255, 255, 222);" height="18" width="18"></rect><text y="14" x="22">字符串</text></g><g transform="translate(216,-33)" class="legend"><rect style="fill: rgb(181, 255, 32); stroke: rgb(181, 255, 32);" height="18" width="18"></rect><text y="14" x="22">链表</text></g><g transform="translate(216,-11)" class="legend"><rect style="fill: rgb(185, 185, 255); stroke: rgb(185, 185, 255);" height="18" width="18"></rect><text y="14" x="22">数学</text></g><g transform="translate(216,11)" class="legend"><rect style="fill: rgb(255, 255, 69); stroke: rgb(255, 255, 69);" height="18" width="18"></rect><text y="14" x="22">栈与队列</text></g><g transform="translate(216,33)" class="legend"><rect style="fill: rgb(215, 255, 134); stroke: rgb(215, 255, 134);" height="18" width="18"></rect><text y="14" x="22">树与图</text></g><g transform="translate(216,55)" class="legend"><rect style="fill: rgb(255, 134, 255); stroke: rgb(255, 134, 255);" height="18" width="18"></rect><text y="14" x="22">其他</text></g></g></svg>