<svg id="container" width="100%" xmlns="http://www.w3.org/2000/svg" style="max-width: 1590px;" viewBox="100 -66 1590 715" role="graphics-document document" aria-roledescription="timeline"><style>#container{font-family:"trebuchet ms",verdana,arial,sans-serif;font-size:16px;fill:#333;}@keyframes edge-animation-frame{from{stroke-dashoffset:0;}}@keyframes dash{to{stroke-dashoffset:0;}}#container .edge-animation-slow{stroke-dasharray:9,5!important;stroke-dashoffset:900;animation:dash 50s linear infinite;stroke-linecap:round;}#container .edge-animation-fast{stroke-dasharray:9,5!important;stroke-dashoffset:900;animation:dash 20s linear infinite;stroke-linecap:round;}#container .error-icon{fill:#552222;}#container .error-text{fill:#552222;stroke:#552222;}#container .edge-thickness-normal{stroke-width:1px;}#container .edge-thickness-thick{stroke-width:3.5px;}#container .edge-pattern-solid{stroke-dasharray:0;}#container .edge-thickness-invisible{stroke-width:0;fill:none;}#container .edge-pattern-dashed{stroke-dasharray:3;}#container .edge-pattern-dotted{stroke-dasharray:2;}#container .marker{fill:#333333;stroke:#333333;}#container .marker.cross{stroke:#333333;}#container svg{font-family:"trebuchet ms",verdana,arial,sans-serif;font-size:16px;}#container p{margin:0;}#container .edge{stroke-width:3;}#container .section--1 rect,#container .section--1 path,#container .section--1 circle,#container .section--1 path{fill:hsl(240, 100%, 76.2745098039%);}#container .section--1 text{fill:#ffffff;}#container .node-icon--1{font-size:40px;color:#ffffff;}#container .section-edge--1{stroke:hsl(240, 100%, 76.2745098039%);}#container .edge-depth--1{stroke-width:17;}#container .section--1 line{stroke:hsl(60, 100%, 86.2745098039%);stroke-width:3;}#container .lineWrapper line{stroke:#ffffff;}#container .disabled,#container .disabled circle,#container .disabled text{fill:lightgray;}#container .disabled text{fill:#efefef;}#container .section-0 rect,#container .section-0 path,#container .section-0 circle,#container .section-0 path{fill:hsl(60, 100%, 73.5294117647%);}#container .section-0 text{fill:black;}#container .node-icon-0{font-size:40px;color:black;}#container .section-edge-0{stroke:hsl(60, 100%, 73.5294117647%);}#container .edge-depth-0{stroke-width:14;}#container .section-0 line{stroke:hsl(240, 100%, 83.5294117647%);stroke-width:3;}#container .lineWrapper line{stroke:black;}#container .disabled,#container .disabled circle,#container .disabled text{fill:lightgray;}#container .disabled text{fill:#efefef;}#container .section-1 rect,#container .section-1 path,#container .section-1 circle,#container .section-1 path{fill:hsl(80, 100%, 76.2745098039%);}#container .section-1 text{fill:black;}#container .node-icon-1{font-size:40px;color:black;}#container .section-edge-1{stroke:hsl(80, 100%, 76.2745098039%);}#container .edge-depth-1{stroke-width:11;}#container .section-1 line{stroke:hsl(260, 100%, 86.2745098039%);stroke-width:3;}#container .lineWrapper line{stroke:black;}#container .disabled,#container .disabled circle,#container .disabled text{fill:lightgray;}#container .disabled text{fill:#efefef;}#container .section-2 rect,#container .section-2 path,#container .section-2 circle,#container .section-2 path{fill:hsl(270, 100%, 76.2745098039%);}#container .section-2 text{fill:#ffffff;}#container .node-icon-2{font-size:40px;color:#ffffff;}#container .section-edge-2{stroke:hsl(270, 100%, 76.2745098039%);}#container .edge-depth-2{stroke-width:8;}#container .section-2 line{stroke:hsl(90, 100%, 86.2745098039%);stroke-width:3;}#container .lineWrapper line{stroke:#ffffff;}#container .disabled,#container .disabled circle,#container .disabled text{fill:lightgray;}#container .disabled text{fill:#efefef;}#container .section-3 rect,#container .section-3 path,#container .section-3 circle,#container .section-3 path{fill:hsl(300, 100%, 76.2745098039%);}#container .section-3 text{fill:black;}#container .node-icon-3{font-size:40px;color:black;}#container .section-edge-3{stroke:hsl(300, 100%, 76.2745098039%);}#container .edge-depth-3{stroke-width:5;}#container .section-3 line{stroke:hsl(120, 100%, 86.2745098039%);stroke-width:3;}#container .lineWrapper line{stroke:black;}#container .disabled,#container .disabled circle,#container .disabled text{fill:lightgray;}#container .disabled text{fill:#efefef;}#container .section-4 rect,#container .section-4 path,#container .section-4 circle,#container .section-4 path{fill:hsl(330, 100%, 76.2745098039%);}#container .section-4 text{fill:black;}#container .node-icon-4{font-size:40px;color:black;}#container .section-edge-4{stroke:hsl(330, 100%, 76.2745098039%);}#container .edge-depth-4{stroke-width:2;}#container .section-4 line{stroke:hsl(150, 100%, 86.2745098039%);stroke-width:3;}#container .lineWrapper line{stroke:black;}#container .disabled,#container .disabled circle,#container .disabled text{fill:lightgray;}#container .disabled text{fill:#efefef;}#container .section-5 rect,#container .section-5 path,#container .section-5 circle,#container .section-5 path{fill:hsl(0, 100%, 76.2745098039%);}#container .section-5 text{fill:black;}#container .node-icon-5{font-size:40px;color:black;}#container .section-edge-5{stroke:hsl(0, 100%, 76.2745098039%);}#container .edge-depth-5{stroke-width:-1;}#container .section-5 line{stroke:hsl(180, 100%, 86.2745098039%);stroke-width:3;}#container .lineWrapper line{stroke:black;}#container .disabled,#container .disabled circle,#container .disabled text{fill:lightgray;}#container .disabled text{fill:#efefef;}#container .section-6 rect,#container .section-6 path,#container .section-6 circle,#container .section-6 path{fill:hsl(30, 100%, 76.2745098039%);}#container .section-6 text{fill:black;}#container .node-icon-6{font-size:40px;color:black;}#container .section-edge-6{stroke:hsl(30, 100%, 76.2745098039%);}#container .edge-depth-6{stroke-width:-4;}#container .section-6 line{stroke:hsl(210, 100%, 86.2745098039%);stroke-width:3;}#container .lineWrapper line{stroke:black;}#container .disabled,#container .disabled circle,#container .disabled text{fill:lightgray;}#container .disabled text{fill:#efefef;}#container .section-7 rect,#container .section-7 path,#container .section-7 circle,#container .section-7 path{fill:hsl(90, 100%, 76.2745098039%);}#container .section-7 text{fill:black;}#container .node-icon-7{font-size:40px;color:black;}#container .section-edge-7{stroke:hsl(90, 100%, 76.2745098039%);}#container .edge-depth-7{stroke-width:-7;}#container .section-7 line{stroke:hsl(270, 100%, 86.2745098039%);stroke-width:3;}#container .lineWrapper line{stroke:black;}#container .disabled,#container .disabled circle,#container .disabled text{fill:lightgray;}#container .disabled text{fill:#efefef;}#container .section-8 rect,#container .section-8 path,#container .section-8 circle,#container .section-8 path{fill:hsl(150, 100%, 76.2745098039%);}#container .section-8 text{fill:black;}#container .node-icon-8{font-size:40px;color:black;}#container .section-edge-8{stroke:hsl(150, 100%, 76.2745098039%);}#container .edge-depth-8{stroke-width:-10;}#container .section-8 line{stroke:hsl(330, 100%, 86.2745098039%);stroke-width:3;}#container .lineWrapper line{stroke:black;}#container .disabled,#container .disabled circle,#container .disabled text{fill:lightgray;}#container .disabled text{fill:#efefef;}#container .section-9 rect,#container .section-9 path,#container .section-9 circle,#container .section-9 path{fill:hsl(180, 100%, 76.2745098039%);}#container .section-9 text{fill:black;}#container .node-icon-9{font-size:40px;color:black;}#container .section-edge-9{stroke:hsl(180, 100%, 76.2745098039%);}#container .edge-depth-9{stroke-width:-13;}#container .section-9 line{stroke:hsl(0, 100%, 86.2745098039%);stroke-width:3;}#container .lineWrapper line{stroke:black;}#container .disabled,#container .disabled circle,#container .disabled text{fill:lightgray;}#container .disabled text{fill:#efefef;}#container .section-10 rect,#container .section-10 path,#container .section-10 circle,#container .section-10 path{fill:hsl(210, 100%, 76.2745098039%);}#container .section-10 text{fill:black;}#container .node-icon-10{font-size:40px;color:black;}#container .section-edge-10{stroke:hsl(210, 100%, 76.2745098039%);}#container .edge-depth-10{stroke-width:-16;}#container .section-10 line{stroke:hsl(30, 100%, 86.2745098039%);stroke-width:3;}#container .lineWrapper line{stroke:black;}#container .disabled,#container .disabled circle,#container .disabled text{fill:lightgray;}#container .disabled text{fill:#efefef;}#container .section-root rect,#container .section-root path,#container .section-root circle{fill:hsl(240, 100%, 46.2745098039%);}#container .section-root text{fill:#ffffff;}#container .icon-container{height:100%;display:flex;justify-content:center;align-items:center;}#container .edge{fill:none;}#container .eventWrapper{filter:brightness(120%);}#container :root{--mermaid-font-family:"trebuchet ms",verdana,arial,sans-serif;}</style><g></g><g></g><defs><marker id="arrowhead" refX="5" refY="2" markerWidth="6" markerHeight="4" orient="auto"><path d="M 0,0 V 4 L6,2 Z"></path></marker></defs><g transform="translate(200, 50)"><g class="timeline-node section--1"><g><path id="node-undefined" class="node-bkg node-undefined" d="M0 62.8 v-57.8 q0,-5 5,-5 h780 q5,0 5,5 v62.8 H0 Z"></path><line class="node-line--1" x1="0" y1="67.8" x2="790" y2="67.8"></line></g><g transform="translate(395, 10)"><text dy="1em" alignment-baseline="middle" dominant-baseline="middle" text-anchor="middle"><tspan x="0" dy="1em">2023年</tspan></text></g></g></g><g class="taskWrapper" transform="translate(200, 167.8)"><g class="timeline-node section--1"><g><path id="node-undefined" class="node-bkg node-undefined" d="M0 62.8 v-57.8 q0,-5 5,-5 h180 q5,0 5,5 v62.8 H0 Z"></path><line class="node-line--1" x1="0" y1="67.8" x2="190" y2="67.8"></line></g><g transform="translate(95, 10)"><text dy="1em" alignment-baseline="middle" dominant-baseline="middle" text-anchor="middle"><tspan x="0" dy="1em">Q1</tspan></text></g></g></g><g class="lineWrapper"><line x1="295" y1="235.60000000000002" x2="295" y2="599" stroke-width="2" stroke="black" marker-end="url(#arrowhead)" stroke-dasharray="5,5"></line></g><g class="eventWrapper" transform="translate(200, 367.8)"><g class="timeline-node section--1"><g><path id="node-undefined" class="node-bkg node-undefined" d="M0 45 v-40 q0,-5 5,-5 h180 q5,0 5,5 v45 H0 Z"></path><line class="node-line--1" x1="0" y1="50" x2="190" y2="50"></line></g><g transform="translate(95, 10)"><text dy="1em" alignment-baseline="middle" dominant-baseline="middle" text-anchor="middle"><tspan x="0" dy="1em">项目启动</tspan></text></g></g></g><g class="eventWrapper" transform="translate(200, 427.8)"><g class="timeline-node section--1"><g><path id="node-undefined" class="node-bkg node-undefined" d="M0 45 v-40 q0,-5 5,-5 h180 q5,0 5,5 v45 H0 Z"></path><line class="node-line--1" x1="0" y1="50" x2="190" y2="50"></line></g><g transform="translate(95, 10)"><text dy="1em" alignment-baseline="middle" dominant-baseline="middle" text-anchor="middle"><tspan x="0" dy="1em">需求分析</tspan></text></g></g></g><g class="eventWrapper" transform="translate(200, 487.8)"><g class="timeline-node section--1"><g><path id="node-undefined" class="node-bkg node-undefined" d="M0 45 v-40 q0,-5 5,-5 h180 q5,0 5,5 v45 H0 Z"></path><line class="node-line--1" x1="0" y1="50" x2="190" y2="50"></line></g><g transform="translate(95, 10)"><text dy="1em" alignment-baseline="middle" dominant-baseline="middle" text-anchor="middle"><tspan x="0" dy="1em">技术选型</tspan></text></g></g></g><g class="taskWrapper" transform="translate(400, 167.8)"><g class="timeline-node section--1"><g><path id="node-undefined" class="node-bkg node-undefined" d="M0 62.8 v-57.8 q0,-5 5,-5 h180 q5,0 5,5 v62.8 H0 Z"></path><line class="node-line--1" x1="0" y1="67.8" x2="190" y2="67.8"></line></g><g transform="translate(95, 10)"><text dy="1em" alignment-baseline="middle" dominant-baseline="middle" text-anchor="middle"><tspan x="0" dy="1em">Q2</tspan></text></g></g></g><g class="lineWrapper"><line x1="495" y1="235.60000000000002" x2="495" y2="599" stroke-width="2" stroke="black" marker-end="url(#arrowhead)" stroke-dasharray="5,5"></line></g><g class="eventWrapper" transform="translate(400, 367.8)"><g class="timeline-node section--1"><g><path id="node-undefined" class="node-bkg node-undefined" d="M0 45 v-40 q0,-5 5,-5 h180 q5,0 5,5 v45 H0 Z"></path><line class="node-line--1" x1="0" y1="50" x2="190" y2="50"></line></g><g transform="translate(95, 10)"><text dy="1em" alignment-baseline="middle" dominant-baseline="middle" text-anchor="middle"><tspan x="0" dy="1em">原型开发</tspan></text></g></g></g><g class="eventWrapper" transform="translate(400, 427.8)"><g class="timeline-node section--1"><g><path id="node-undefined" class="node-bkg node-undefined" d="M0 45 v-40 q0,-5 5,-5 h180 q5,0 5,5 v45 H0 Z"></path><line class="node-line--1" x1="0" y1="50" x2="190" y2="50"></line></g><g transform="translate(95, 10)"><text dy="1em" alignment-baseline="middle" dominant-baseline="middle" text-anchor="middle"><tspan x="0" dy="1em">UI设计</tspan></text></g></g></g><g class="eventWrapper" transform="translate(400, 487.8)"><g class="timeline-node section--1"><g><path id="node-undefined" class="node-bkg node-undefined" d="M0 45 v-40 q0,-5 5,-5 h180 q5,0 5,5 v45 H0 Z"></path><line class="node-line--1" x1="0" y1="50" x2="190" y2="50"></line></g><g transform="translate(95, 10)"><text dy="1em" alignment-baseline="middle" dominant-baseline="middle" text-anchor="middle"><tspan x="0" dy="1em">核心功能开发</tspan></text></g></g></g><g class="taskWrapper" transform="translate(600, 167.8)"><g class="timeline-node section--1"><g><path id="node-undefined" class="node-bkg node-undefined" d="M0 62.8 v-57.8 q0,-5 5,-5 h180 q5,0 5,5 v62.8 H0 Z"></path><line class="node-line--1" x1="0" y1="67.8" x2="190" y2="67.8"></line></g><g transform="translate(95, 10)"><text dy="1em" alignment-baseline="middle" dominant-baseline="middle" text-anchor="middle"><tspan x="0" dy="1em">Q3</tspan></text></g></g></g><g class="lineWrapper"><line x1="695" y1="235.60000000000002" x2="695" y2="599" stroke-width="2" stroke="black" marker-end="url(#arrowhead)" stroke-dasharray="5,5"></line></g><g class="eventWrapper" transform="translate(600, 367.8)"><g class="timeline-node section--1"><g><path id="node-undefined" class="node-bkg node-undefined" d="M0 45 v-40 q0,-5 5,-5 h180 q5,0 5,5 v45 H0 Z"></path><line class="node-line--1" x1="0" y1="50" x2="190" y2="50"></line></g><g transform="translate(95, 10)"><text dy="1em" alignment-baseline="middle" dominant-baseline="middle" text-anchor="middle"><tspan x="0" dy="1em">测试阶段</tspan></text></g></g></g><g class="eventWrapper" transform="translate(600, 427.8)"><g class="timeline-node section--1"><g><path id="node-undefined" class="node-bkg node-undefined" d="M0 45 v-40 q0,-5 5,-5 h180 q5,0 5,5 v45 H0 Z"></path><line class="node-line--1" x1="0" y1="50" x2="190" y2="50"></line></g><g transform="translate(95, 10)"><text dy="1em" alignment-baseline="middle" dominant-baseline="middle" text-anchor="middle"><tspan x="0" dy="1em">Bug修复</tspan></text></g></g></g><g class="eventWrapper" transform="translate(600, 487.8)"><g class="timeline-node section--1"><g><path id="node-undefined" class="node-bkg node-undefined" d="M0 45 v-40 q0,-5 5,-5 h180 q5,0 5,5 v45 H0 Z"></path><line class="node-line--1" x1="0" y1="50" x2="190" y2="50"></line></g><g transform="translate(95, 10)"><text dy="1em" alignment-baseline="middle" dominant-baseline="middle" text-anchor="middle"><tspan x="0" dy="1em">性能优化</tspan></text></g></g></g><g class="taskWrapper" transform="translate(800, 167.8)"><g class="timeline-node section--1"><g><path id="node-undefined" class="node-bkg node-undefined" d="M0 62.8 v-57.8 q0,-5 5,-5 h180 q5,0 5,5 v62.8 H0 Z"></path><line class="node-line--1" x1="0" y1="67.8" x2="190" y2="67.8"></line></g><g transform="translate(95, 10)"><text dy="1em" alignment-baseline="middle" dominant-baseline="middle" text-anchor="middle"><tspan x="0" dy="1em">Q4</tspan></text></g></g></g><g class="lineWrapper"><line x1="895" y1="235.60000000000002" x2="895" y2="599" stroke-width="2" stroke="black" marker-end="url(#arrowhead)" stroke-dasharray="5,5"></line></g><g class="eventWrapper" transform="translate(800, 367.8)"><g class="timeline-node section--1"><g><path id="node-undefined" class="node-bkg node-undefined" d="M0 45 v-40 q0,-5 5,-5 h180 q5,0 5,5 v45 H0 Z"></path><line class="node-line--1" x1="0" y1="50" x2="190" y2="50"></line></g><g transform="translate(95, 10)"><text dy="1em" alignment-baseline="middle" dominant-baseline="middle" text-anchor="middle"><tspan x="0" dy="1em">上线发布</tspan></text></g></g></g><g class="eventWrapper" transform="translate(800, 427.8)"><g class="timeline-node section--1"><g><path id="node-undefined" class="node-bkg node-undefined" d="M0 45 v-40 q0,-5 5,-5 h180 q5,0 5,5 v45 H0 Z"></path><line class="node-line--1" x1="0" y1="50" x2="190" y2="50"></line></g><g transform="translate(95, 10)"><text dy="1em" alignment-baseline="middle" dominant-baseline="middle" text-anchor="middle"><tspan x="0" dy="1em">用户反馈</tspan></text></g></g></g><g class="eventWrapper" transform="translate(800, 487.8)"><g class="timeline-node section--1"><g><path id="node-undefined" class="node-bkg node-undefined" d="M0 45 v-40 q0,-5 5,-5 h180 q5,0 5,5 v45 H0 Z"></path><line class="node-line--1" x1="0" y1="50" x2="190" y2="50"></line></g><g transform="translate(95, 10)"><text dy="1em" alignment-baseline="middle" dominant-baseline="middle" text-anchor="middle"><tspan x="0" dy="1em">功能迭代</tspan></text></g></g></g><g transform="translate(1000, 50)"><g class="timeline-node section-0"><g><path id="node-undefined" class="node-bkg node-undefined" d="M0 62.8 v-57.8 q0,-5 5,-5 h380 q5,0 5,5 v62.8 H0 Z"></path><line class="node-line-0" x1="0" y1="67.8" x2="390" y2="67.8"></line></g><g transform="translate(195, 10)"><text dy="1em" alignment-baseline="middle" dominant-baseline="middle" text-anchor="middle"><tspan x="0" dy="1em">2024年</tspan></text></g></g></g><g class="taskWrapper" transform="translate(1000, 167.8)"><g class="timeline-node section-0"><g><path id="node-undefined" class="node-bkg node-undefined" d="M0 62.8 v-57.8 q0,-5 5,-5 h180 q5,0 5,5 v62.8 H0 Z"></path><line class="node-line-0" x1="0" y1="67.8" x2="190" y2="67.8"></line></g><g transform="translate(95, 10)"><text dy="1em" alignment-baseline="middle" dominant-baseline="middle" text-anchor="middle"><tspan x="0" dy="1em">Q1</tspan></text></g></g></g><g class="lineWrapper"><line x1="1095" y1="235.60000000000002" x2="1095" y2="599" stroke-width="2" stroke="black" marker-end="url(#arrowhead)" stroke-dasharray="5,5"></line></g><g class="eventWrapper" transform="translate(1000, 367.8)"><g class="timeline-node section-0"><g><path id="node-undefined" class="node-bkg node-undefined" d="M0 45 v-40 q0,-5 5,-5 h180 q5,0 5,5 v45 H0 Z"></path><line class="node-line-0" x1="0" y1="50" x2="190" y2="50"></line></g><g transform="translate(95, 10)"><text dy="1em" alignment-baseline="middle" dominant-baseline="middle" text-anchor="middle"><tspan x="0" dy="1em">版本升级</tspan></text></g></g></g><g class="eventWrapper" transform="translate(1000, 427.8)"><g class="timeline-node section-0"><g><path id="node-undefined" class="node-bkg node-undefined" d="M0 45 v-40 q0,-5 5,-5 h180 q5,0 5,5 v45 H0 Z"></path><line class="node-line-0" x1="0" y1="50" x2="190" y2="50"></line></g><g transform="translate(95, 10)"><text dy="1em" alignment-baseline="middle" dominant-baseline="middle" text-anchor="middle"><tspan x="0" dy="1em">新功能开发</tspan></text></g></g></g><g class="eventWrapper" transform="translate(1000, 487.8)"><g class="timeline-node section-0"><g><path id="node-undefined" class="node-bkg node-undefined" d="M0 45 v-40 q0,-5 5,-5 h180 q5,0 5,5 v45 H0 Z"></path><line class="node-line-0" x1="0" y1="50" x2="190" y2="50"></line></g><g transform="translate(95, 10)"><text dy="1em" alignment-baseline="middle" dominant-baseline="middle" text-anchor="middle"><tspan x="0" dy="1em">用户增长</tspan></text></g></g></g><g class="taskWrapper" transform="translate(1200, 167.8)"><g class="timeline-node section-0"><g><path id="node-undefined" class="node-bkg node-undefined" d="M0 62.8 v-57.8 q0,-5 5,-5 h180 q5,0 5,5 v62.8 H0 Z"></path><line class="node-line-0" x1="0" y1="67.8" x2="190" y2="67.8"></line></g><g transform="translate(95, 10)"><text dy="1em" alignment-baseline="middle" dominant-baseline="middle" text-anchor="middle"><tspan x="0" dy="1em">Q2</tspan></text></g></g></g><g class="lineWrapper"><line x1="1295" y1="235.60000000000002" x2="1295" y2="599" stroke-width="2" stroke="black" marker-end="url(#arrowhead)" stroke-dasharray="5,5"></line></g><g class="eventWrapper" transform="translate(1200, 367.8)"><g class="timeline-node section-0"><g><path id="node-undefined" class="node-bkg node-undefined" d="M0 45 v-40 q0,-5 5,-5 h180 q5,0 5,5 v45 H0 Z"></path><line class="node-line-0" x1="0" y1="50" x2="190" y2="50"></line></g><g transform="translate(95, 10)"><text dy="1em" alignment-baseline="middle" dominant-baseline="middle" text-anchor="middle"><tspan x="0" dy="1em">平台扩展</tspan></text></g></g></g><g class="eventWrapper" transform="translate(1200, 427.8)"><g class="timeline-node section-0"><g><path id="node-undefined" class="node-bkg node-undefined" d="M0 45 v-40 q0,-5 5,-5 h180 q5,0 5,5 v45 H0 Z"></path><line class="node-line-0" x1="0" y1="50" x2="190" y2="50"></line></g><g transform="translate(95, 10)"><text dy="1em" alignment-baseline="middle" dominant-baseline="middle" text-anchor="middle"><tspan x="0" dy="1em">移动端适配</tspan></text></g></g></g><g class="eventWrapper" transform="translate(1200, 487.8)"><g class="timeline-node section-0"><g><path id="node-undefined" class="node-bkg node-undefined" d="M0 45 v-40 q0,-5 5,-5 h180 q5,0 5,5 v45 H0 Z"></path><line class="node-line-0" x1="0" y1="50" x2="190" y2="50"></line></g><g transform="translate(95, 10)"><text dy="1em" alignment-baseline="middle" dominant-baseline="middle" text-anchor="middle"><tspan x="0" dy="1em">API优化</tspan></text></g></g></g><text x="445" font-size="4ex" font-weight="bold" y="20">🚀 项目发展历程</text><g class="lineWrapper"><line x1="150" y1="285.6" x2="1640" y2="285.6" stroke-width="4" stroke="black" marker-end="url(#arrowhead)"></line></g></svg>